<svg width="13" height="13" viewBox="0 0 13 13" fill="none" xmlns="http://www.w3.org/2000/svg">
<path fill-rule="evenodd" clip-rule="evenodd" d="M11.8549 0.146894C11.9014 0.193339 11.9384 0.248515 11.9636 0.30926C11.9888 0.370005 12.0018 0.435127 12.0018 0.500894C12.0018 0.566661 11.9888 0.631782 11.9636 0.692528C11.9384 0.753273 11.9014 0.808448 11.8549 0.854894L0.854876 11.8549C0.760989 11.9488 0.633651 12.0015 0.500876 12.0015C0.3681 12.0015 0.240762 11.9488 0.146876 11.8549C0.052989 11.761 0.000244141 11.6337 0.000244141 11.5009C0.000244141 11.3681 0.052989 11.2408 0.146876 11.1469L11.1469 0.146894C11.1933 0.10033 11.2485 0.0633878 11.3092 0.0381813C11.37 0.0129749 11.4351 0 11.5009 0C11.5666 0 11.6318 0.0129749 11.6925 0.0381813C11.7533 0.0633878 11.8084 0.10033 11.8549 0.146894V0.146894Z" fill="white"/>
<path fill-rule="evenodd" clip-rule="evenodd" d="M0.146894 0.146894C0.10033 0.193339 0.0633878 0.248515 0.0381813 0.30926C0.0129749 0.370005 0 0.435127 0 0.500894C0 0.566661 0.0129749 0.631782 0.0381813 0.692528C0.0633878 0.753273 0.10033 0.808448 0.146894 0.854894L11.1469 11.8549C11.2408 11.9488 11.3681 12.0015 11.5009 12.0015C11.6337 12.0015 11.761 11.9488 11.8549 11.8549C11.9488 11.761 12.0015 11.6337 12.0015 11.5009C12.0015 11.3681 11.9488 11.2408 11.8549 11.1469L0.854894 0.146894C0.808448 0.10033 0.753273 0.0633878 0.692528 0.0381813C0.631782 0.0129749 0.566661 0 0.500894 0C0.435127 0 0.370005 0.0129749 0.30926 0.0381813C0.248515 0.0633878 0.193339 0.10033 0.146894 0.146894V0.146894Z" fill="white"/>
</svg>
