<svg width="242" height="231" viewBox="0 0 242 231" fill="none" xmlns="http://www.w3.org/2000/svg">
<ellipse cx="120.538" cy="121.675" rx="120.538" ry="109.325" fill="url(#paint0_linear_2_21)"/>
<path d="M100.089 41.952C89.6927 51.2154 71.1467 71.3892 74.9634 82.1364C75.3191 82.8408 75.6675 83.5015 76.0032 84.1121C75.5559 83.4973 75.2121 82.8369 74.9634 82.1364C69.7451 71.8028 62.9335 52.0293 71.0199 41.952C78.0207 33.2275 82.5846 30.1993 84.7999 29.524C79.8541 30.2626 72.6915 33.4407 65.5 35.5C52.5 41.952 43.8241 50.9341 43 58.5C42.254 54.1491 41.1488 44.9111 45 38.5C48.2949 33.015 58 26.5 65.5 24C79.5792 19.3069 94.1673 8.9119 114.931 12.5L111.931 1H121.431L118.931 12.3501C127.513 8.164 157.472 11.2737 175.412 21.3204C193.351 31.367 198.114 43.3722 197.837 49.3524C195.187 47.4247 191.344 44.532 188.431 41.952C182.965 37.111 179.022 34.5973 173.931 32.5C162.797 27.9129 154.367 29.3936 152.414 29.3936C148.261 29.3936 167.106 34.103 175.412 58.3227C172.007 55.2587 167.523 51.7542 162.517 48.2311C152.866 41.4399 131.937 37.2269 128 41.952C120.525 50.9222 99.2585 60.7895 110.056 72.4508C106.733 71.5164 100.089 64.1084 100.089 41.952Z" fill="url(#paint1_linear_2_21)" stroke="#45971F"/>
<defs>
<linearGradient id="paint0_linear_2_21" x1="143.524" y1="156.995" x2="111.5" y2="328" gradientUnits="userSpaceOnUse">
<stop stop-color="#DB261C"/>
<stop offset="0.493251" stop-color="#EC440E"/>
<stop offset="0.999136" stop-color="#FF7A00"/>
</linearGradient>
<linearGradient id="paint1_linear_2_21" x1="131.273" y1="-19.3322" x2="80.259" y2="108.846" gradientUnits="userSpaceOnUse">
<stop stop-color="#1FEF34"/>
<stop offset="1" stop-color="#4EE719"/>
</linearGradient>
</defs>
</svg>
