<svg width="32" height="33" viewBox="0 0 32 33" fill="none" xmlns="http://www.w3.org/2000/svg">
<path d="M19.0019 33H12.9991C12.623 33.0001 12.2582 32.8715 11.9651 32.6356C11.6721 32.3997 11.4684 32.0707 11.3879 31.7031L10.7168 28.5945C9.82139 28.202 8.97239 27.7111 8.18538 27.131L5.15597 28.0962C4.79739 28.2106 4.41049 28.1989 4.05951 28.0629C3.70853 27.9269 3.4146 27.6749 3.22652 27.3488L0.218542 22.1496C0.032432 21.8231 -0.0374289 21.4431 0.0203886 21.0717C0.0782061 20.7004 0.260279 20.3596 0.536819 20.1053L2.8868 17.9603C2.77993 16.9886 2.77993 16.0081 2.8868 15.0364L0.536819 12.8964C0.259887 12.6419 0.0775668 12.3009 0.0197399 11.9291C-0.0380871 11.5574 0.0320098 11.177 0.218542 10.8504L3.21992 5.64795C3.408 5.32177 3.70194 5.06978 4.05292 4.93381C4.40389 4.79784 4.7908 4.78609 5.14937 4.9005L8.17879 5.86575C8.58117 5.56875 9.00004 5.29155 9.43211 5.04075C9.84933 4.80645 10.2781 4.5936 10.7168 4.40385L11.3896 1.29855C11.4697 0.930926 11.673 0.601735 11.9657 0.365555C12.2584 0.129376 12.6231 0.000395944 12.9991 0H19.0019C19.3779 0.000395944 19.7426 0.129376 20.0353 0.365555C20.328 0.601735 20.5313 0.930926 20.6114 1.29855L21.2908 4.4055C22.1851 4.80029 23.0338 5.29101 23.8222 5.86905L26.8533 4.9038C27.2116 4.78981 27.5982 4.80178 27.9488 4.93773C28.2994 5.07367 28.5931 5.32542 28.7811 5.65125L31.7825 10.8537C32.1651 11.5252 32.0331 12.375 31.4642 12.8981L29.1142 15.043C29.2211 16.0147 29.2211 16.9952 29.1142 17.9669L31.4642 20.1119C32.0331 20.6365 32.1651 21.4846 31.7825 22.1562L28.7811 27.3586C28.593 27.6848 28.2991 27.9368 27.9481 28.0728C27.5971 28.2088 27.2102 28.2205 26.8516 28.1061L23.8222 27.1408C23.0358 27.7206 22.1873 28.2109 21.2925 28.6027L20.6114 31.7031C20.531 32.0704 20.3276 32.3992 20.0349 32.6351C19.7422 32.8709 19.3777 32.9997 19.0019 33ZM15.9939 9.9C14.2444 9.9 12.5666 10.5954 11.3295 11.8331C10.0925 13.0708 9.39748 14.7496 9.39748 16.5C9.39748 18.2504 10.0925 19.9292 11.3295 21.1669C12.5666 22.4046 14.2444 23.1 15.9939 23.1C17.7434 23.1 19.4212 22.4046 20.6583 21.1669C21.8954 19.9292 22.5903 18.2504 22.5903 16.5C22.5903 14.7496 21.8954 13.0708 20.6583 11.8331C19.4212 10.5954 17.7434 9.9 15.9939 9.9Z" fill="white"/>
</svg>
